:version 1.10
:name ASF
:units
  mass 1
  length 1
  angle deg
:documentation
  ASF file generated by Kaydara
:root
  axis xyz
  order  tx ty tz rx ry rz
  position 0 0 0
  orientation 0 0 0
:bonedata
  begin
    id 1
    name RightUpLegDummy
    direction -0.718183 -0.695806 0.00816078
    length 4.904
    axis 0 0 0 xyz
  end
  begin
    id 2
    name RightUpLeg
    direction 3.52958e-006 -0.995788 0.0916897
    length 17.4976
    axis -3.49089 -0.000906604 0.000286563 xyz
    dof rx ry rz
  end
  begin
    id 3
    name RightLeg
    direction 0.00371092 -0.995096 -0.0988418
    length 16.5821
    axis 3.68512 0.0193729 -0.131024 xyz
    dof rx ry rz
  end
  begin
    id 4
    name RightFoot
    direction 0.000791509 -0.46099 0.887405
    length 3.77069
    axis 4.79326e-005 -0.12048 -0.188786 xyz
    dof rx ry rz
  end
  begin
    id 5
    name RightToes
    direction 0.00124744 -0.014064 0.9999
    length 3.85082
    axis 0.000481823 0.542162 -0.142575 xyz
    dof rx ry rz
  end
  begin
    id 6
    name SpineDummy
    direction 8.3039e-015 1 4.5985e-016
    length 4.6813
    axis 0 0 0 xyz
  end
  begin
    id 7
    name Spine
    direction -2.76001e-008 0.999988 0.00495137
    length 10.1015
    axis -0.00138904 0.000121419 2.18259e-006 xyz
    dof rx ry rz
  end
  begin
    id 8
    name Spine1
    direction 0 0 0
    length 0
    axis -0.00138909 0.000121453 1.00341e-006 xyz
    dof rx ry rz
  end
  begin
    id 9
    name HEadDummy
    direction -1.48118e-008 0.999999 0.00127422
    length 3.43865
    axis -0.00138909 0.000121453 1.00341e-006 xyz
  end
  begin
    id 10
    name HEad
    direction -0.0222688 0.980941 0.193023
    length 5.12695
    axis -0.00138909 0.000121453 1.00341e-006 xyz
    dof rx ry rz
  end
  begin
    id 11
    name LeftShoulder1Dummy
    direction 0.998891 -0.0402509 -0.0244456
    length 3.5433
    axis -0.00138909 0.000121453 1.00341e-006 xyz
  end
  begin
    id 12
    name LeftShoulder1
    direction 0.99951 -0.000327768 0.0313091
    length 4.05031
    axis -0.00138909 0.000121453 1.00341e-006 xyz
    dof rx ry rz
  end
  begin
    id 13
    name LeftArm
    direction 0.998561 -0.00100057 -0.0536182
    length 10.3537
    axis -23.1894 0.134785 0.967509 xyz
    dof rx ry rz
  end
  begin
    id 14
    name LeftForeArm
    direction 0.998903 0.00866432 0.0460119
    length 8.70632
    axis -9.91835 -0.0656885 -0.177794 xyz
    dof rx ry rz
  end
  begin
    id 15
    name LeftHand
    direction 0.992938 -0.0411637 0.11126
    length 5.32135
    axis -0.00960338 -0.0033994 0.185172 xyz
    dof rx ry rz
  end
  begin
    id 16
    name RightShoulderDummy
    direction -0.998891 -0.0402509 -0.0244414
    length 3.5433
    axis -0.00138909 0.000121453 1.00341e-006 xyz
  end
  begin
    id 17
    name RightShoulder
    direction -0.99951 -0.000327802 0.0313133
    length 4.05031
    axis 0.215806 0.000203644 -0.0068029 xyz
    dof rx ry rz
  end
  begin
    id 18
    name RightArm
    direction -0.998573 -0.000999559 -0.053403
    length 10.3947
    axis -23.2009 -0.13424 -0.964101 xyz
    dof rx ry rz
  end
  begin
    id 19
    name RightForeArm
    direction -0.998898 0.00868028 0.0461306
    length 8.68355
    axis -9.92322 0.0658049 0.178868 xyz
    dof rx ry rz
  end
  begin
    id 20
    name RightHand
    direction -0.992843 -0.0414603 0.112003
    length 5.28593
    axis -0.00961221 0.00330442 -0.185228 xyz
    dof rx ry rz
  end
  begin
    id 21
    name LeftUpLegDummy
    direction 0.718183 -0.695806 0.00816078
    length 4.904
    axis 0 0 0 xyz
  end
  begin
    id 22
    name LeftUpLeg
    direction -6.82186e-006 -0.995793 0.0916336
    length 17.4976
    axis -3.48766 0.0014344 -0.00052451 xyz
    dof rx ry rz
  end
  begin
    id 23
    name LeftLeg
    direction -0.00601358 -0.995091 -0.0987824
    length 16.5821
    axis 3.68177 -0.00653924 -0.000285273 xyz
    dof rx ry rz
  end
  begin
    id 24
    name LeftFoot
    direction -0.00417579 -0.460984 0.887399
    length 3.77069
    axis 9.18994e-007 4.80418e-005 -1.15487e-005 xyz
    dof rx ry rz
  end
  begin
    id 25
    name LeftToes
    direction 0.00818061 -0.0048516 0.999955
    length 3.85048
    axis 1.03739e-005 4.80329e-005 -1.15497e-005 xyz
    dof rx ry rz
  end
:hierarchy
  begin
    root RightUpLegDummy SpineDummy LeftUpLegDummy
    RightUpLegDummy RightUpLeg
    RightUpLeg RightLeg
    RightLeg RightFoot
    RightFoot RightToes
    SpineDummy Spine
    Spine Spine1
    Spine1 HEadDummy LeftShoulder1Dummy RightShoulderDummy
    HEadDummy HEad
    LeftShoulder1Dummy LeftShoulder1
    LeftShoulder1 LeftArm
    LeftArm LeftForeArm
    LeftForeArm LeftHand
    RightShoulderDummy RightShoulder
    RightShoulder RightArm
    RightArm RightForeArm
    RightForeArm RightHand
    LeftUpLegDummy LeftUpLeg
    LeftUpLeg LeftLeg
    LeftLeg LeftFoot
    LeftFoot LeftToes
  end

:SAMPLES-PER-SECOND 25
:FULLY-SPECIFIED
:DEGREES
1
root  6.36013 40.0686 -89.9818 -1.53144 2.38605 -0.764877
RightUpLeg  -1.71477 2.42052 5.41334
RightLeg  6.54868 -8.90146 -2.91968
RightFoot  -4.5897 0.00446096 -0.681038
RightToes  2.84633e-005 7.89722e-005 -0.000426369
Spine  1.94438 0.080656 1.80096
Spine1  3.893 0.113612 3.26258
HEad  7.5548 -11.9147 -7.96906
LeftShoulder1  -3.88251e-019 0 -3.92111e-022
LeftArm  -32.6978 2.89136 -86.1358
LeftForeArm  42.0203 1.90242 -0.590316
LeftHand  -0.777497 -5.1377 8.86748
RightShoulder  7.45443e-017 -2.42657e-020 1.96277e-018
RightArm  -23.6087 -8.76804 74.6072
RightForeArm  33.9855 1.77769 6.14072
RightHand  -1.08008 9.57373 -8.73843
LeftUpLeg  -3.79372 0.537796 1.3658
LeftLeg  8.54268 -4.80384 0.890797
LeftFoot  -4.80913 0.0578315 -0.677962
LeftToes  3.91355e-005 3.11907e-005 -4.10385e-006
2
root  6.36013 40.0728 -90.0047 -1.43784 2.35183 -0.755398
RightUpLeg  -1.82789 2.38794 5.37009
RightLeg  6.4749 -8.82415 -2.85895
RightFoot  -4.5107 0.00668334 -0.715563
RightToes  2.84633e-005 7.89722e-005 -0.000426369
Spine  1.8921 0.0795968 1.78784
Spine1  3.78847 0.114704 3.23932
HEad  8.17844 -11.198 -8.27162
LeftShoulder1  -3.88251e-019 0 -3.92111e-022
LeftArm  -32.8901 2.52668 -86.2029
LeftForeArm  42.1681 1.82942 0.0297906
LeftHand  -0.796726 -4.62938 9.50793
RightShoulder  7.45443e-017 -2.42657e-020 1.96277e-018
RightArm  -23.7886 -8.59286 74.7763
RightForeArm  34.4386 1.26852 5.71364
RightHand  -1.15885 9.69481 -9.27446
LeftUpLeg  -3.89166 0.534378 1.34651
LeftLeg  8.45998 -4.76938 0.920632
LeftFoot  -4.73078 0.0637369 -0.769742
LeftToes  3.91355e-005 3.11907e-005 -4.10385e-006
3
root  6.36013 40.0831 -90.0204 -1.359 2.35504 -0.729826
RightUpLeg  -1.78025 2.26747 5.28609
RightLeg  6.13208 -8.7139 -2.72367
RightFoot  -4.32796 0.00536964 -0.695154
RightToes  2.84633e-005 7.89722e-005 -0.000426369
Spine  1.86336 0.0566286 1.80141
Spine1  3.73038 0.0675521 3.26302
HEad  8.49521 -10.3021 -8.5792
LeftShoulder1  -3.88251e-019 0 -3.92111e-022
LeftArm  -32.9576 2.74392 -86.4514
LeftForeArm  40.7071 1.85324 0.191707
LeftHand  -0.792141 -4.61763 9.4656
RightShoulder  7.45443e-017 -2.42657e-020 1.96277e-018
RightArm  -24.0153 -8.91796 74.9461
RightForeArm  33.1918 1.58421 5.61008
RightHand  -1.14296 9.66484 -9.16957
LeftUpLeg  -3.86552 0.557923 1.28398
LeftLeg  8.18396 -4.7939 0.998325
LeftFoot  -4.5775 0.071859 -0.895974
LeftToes  3.91355e-005 3.11907e-005 -4.10385e-006
4
root  6.35054 40.0884 -90.036 -1.49204 2.39971 -0.748105
RightUpLeg  -1.54404 2.2485 5.33355
RightLeg  5.89332 -8.76096 -2.71359
RightFoot  -4.22714 0.00836179 -0.741639
RightToes  2.84633e-005 7.89722e-005 -0.000426369
Spine  2.01934 -0.0127356 1.85753
Spine1  4.04047 -0.0759702 3.35988
HEad  7.93872 -9.97657 -8.76442
LeftShoulder1  -3.88251e-019 0 -3.92111e-022
LeftArm  -32.6684 3.02442 -86.7234
LeftForeArm  39.5136 1.90777 -0.0374659
LeftHand  -0.799565 -4.86211 9.33436
RightShoulder  7.45443e-017 -2.42657e-020 1.96277e-018
RightArm  -23.7634 -9.2785 74.8875
RightForeArm  31.6983 2.34538 6.12528
RightHand  -0.901828 9.57745 -7.36438
LeftUpLeg  -3.69061 0.705977 1.35892
LeftLeg  8.04488 -4.98861 0.917392
LeftFoot  -4.47645 0.06695 -0.819678
LeftToes  3.91355e-005 3.11907e-005 -4.10385e-006
5
root  6.34437 40.0848 -90.0545 -1.56948 2.49049 -0.751676
RightUpLeg  -1.56019 2.2726 5.34769
RightLeg  6.0555 -8.88119 -2.74972
RightFoot  -4.30095 0.0112954 -0.787216
RightToes  2.84633e-005 7.89722e-005 -0.000426369
Spine  2.12459 -0.10231 1.90251
Spine1  4.2484 -0.25959 3.45331
HEad  7.6896 -9.94923 -8.76987
LeftShoulder1  -3.88251e-019 0 -3.92111e-022
LeftArm  -32.1856 3.01145 -86.9856
LeftForeArm  39.4678 1.9345 -0.293385
LeftHand  -0.859057 -5.12646 9.77199
RightShoulder  7.45443e-017 -2.42657e-020 1.96277e-018
RightArm  -22.9848 -9.31682 74.6104
RightForeArm  31.5498 2.68303 6.6788
RightHand  -1.14184 9.75541 -9.09555
LeftUpLeg  -3.68887 0.663172 1.35967
LeftLeg  8.1382 -5.04505 0.917338
LeftFoot  -4.51188 0.0691775 -0.854298
LeftToes  3.91355e-005 3.11907e-005 -4.10385e-006
6
root  6.33748 40.0787 -90.062 -1.61939 2.57021 -0.726756
RightUpLeg  -1.58898 2.29038 5.33461
RightLeg  6.19645 -8.98208 -2.77711
RightFoot  -4.34956 0.00753609 -0.728811
RightToes  2.84633e-005 7.89722e-005 -0.000426369
Spine  2.18333 -0.145223 1.92817
Spine1  4.36451 -0.348344 3.51397
HEad  7.54682 -10.3019 -8.78273
LeftShoulder1  -3.88251e-019 0 -3.92111e-022
LeftArm  -31.8408 2.62142 -87.2538
LeftForeArm  39.5956 1.93419 -0.33457
LeftHand  -0.819996 -5.09285 9.37106
RightShoulder  7.45443e-017 -2.42657e-020 1.96277e-018
RightArm  -22.6148 -9.10427 74.4615
RightForeArm  32.9482 2.41936 6.87767
RightHand  -1.24931 9.69299 -9.96455
LeftUpLeg  -3.68511 0.558744 1.30179
LeftLeg  8.20017 -5.01265 0.986699
LeftFoot  -4.53832 0.0696929 -0.862308
LeftToes  3.91355e-005 3.11907e-005 -4.10385e-006
